<svg width="50" height="50" xmlns="http://www.w3.org/2000/svg">

 <g>
  <title>background</title>
  <rect fill="none" id="canvas_background" height="402" width="582" y="-1" x="-1"/>
 </g>
 <g>
  <title>Layer 1</title>
  <path id="svg_1" d="m26.8,48.1l15.6,-9.2c4.5,-3.3 7.3,-8.3 7.6,-14l0,-23.3l-2.3,-1.3l-13.9,7.7l0,23.8c0,2.7 -0.7,5.3 -2.1,7.6c-0.3,0 -0.5,0 -0.8,0c-6.9,0 -12.6,-5.5 -12.6,-12.3l0,-25.8l-2.4,-1.3l-15.9,9l0,22.7c0,10.1 8.3,18.3 18.6,18.3c2.8,0 5.6,-0.7 8.2,-1.9zm10.4,-16.4l0,-21.8l9.4,-5.2l0,20.1c-0.4,7.6 -5.9,12.1 -10.7,13.7c0.8,-2.1 1.3,-4.4 1.3,-6.8zm-33.8,0l0,-20.8l11.4,-6.5l0,22.6c0,8 6.1,14.7 14.1,15.6c-2.8,2.6 -6.5,4 -10.4,4c-8.3,0 -15.1,-6.6 -15.1,-14.9z" fill="#00B2E2"/>
 </g>
</svg>