<svg width="50" height="50" xmlns="http://www.w3.org/2000/svg">
    <title>
        background
    </title>
    <path fill="none" d="M-1-1h582v402H-1z"/>
    <g>
        <title>
            Layer 1
        </title>
        <path d="M26.8 48.1l15.6-9.2c4.5-3.3 7.3-8.3 7.6-14V1.6L47.7.3 33.8 8v23.8c0 2.7-.7 5.3-2.1 7.6h-.8c-6.9 0-12.6-5.5-12.6-12.3V1.3L15.9 0 0 9v22.7C0 41.8 8.3 50 18.6 50c2.8 0 5.6-.7 8.2-1.9zm10.4-16.4V9.9l9.4-5.2v20.1c-.4 7.6-5.9 12.1-10.7 13.7.8-2.1 1.3-4.4 1.3-6.8zm-33.8 0V10.9l11.4-6.5V27c0 8 6.1 14.7 14.1 15.6-2.8 2.6-6.5 4-10.4 4-8.3 0-15.1-6.6-15.1-14.9z" fill="#00B2E2"/>
    </g>
</svg>
